<svg width="20" height="21" viewBox="0 0 20 21" fill="none" xmlns="http://www.w3.org/2000/svg">
<path d="M18.3301 7.10992C18.3186 5.31361 17.5177 3.95057 15.968 3.04325C15.2861 2.64379 14.5324 2.47097 13.7421 2.47056C11.2471 2.46852 8.75215 2.46241 6.2572 2.47219C4.22651 2.47993 2.53006 3.71946 1.88767 5.65518C1.79311 5.9405 1.75846 6.24621 1.6965 6.54254C1.6855 6.59512 1.67653 6.64811 1.66675 6.70069V14.9025C1.71158 15.152 1.73604 15.4071 1.80411 15.6501C2.32095 17.4949 3.51972 18.628 5.38859 19.0503C5.55612 19.0882 5.72854 19.1062 5.89851 19.1335H14.102C14.3518 19.0886 14.607 19.0642 14.8503 18.9961C16.6931 18.4801 17.8295 17.2833 18.2453 15.4165C18.3121 15.1177 18.3292 14.8031 18.3301 14.4957C18.3366 12.0338 18.3456 9.57186 18.3301 7.10992ZM10.0076 15.3688C7.49836 15.3831 5.43098 13.319 5.43221 10.8008C5.43343 8.28505 7.46697 6.24865 9.9929 6.23439C12.5021 6.22012 14.5695 8.28383 14.5683 10.802C14.567 13.3178 12.5335 15.3541 10.0076 15.3688ZM14.8438 7.34674C14.0897 7.3443 13.4555 6.70925 13.4559 5.95681C13.4559 5.20192 14.0881 4.57258 14.8458 4.5734C15.6077 4.5738 16.2317 5.19866 16.2297 5.95925C16.228 6.7174 15.5971 7.34919 14.8438 7.34674Z" fill="#555555"/>
<path d="M1.66675 14.9028C1.71158 15.1523 1.73604 15.4074 1.80411 15.6504C2.32095 17.4952 3.51972 18.6283 5.38859 19.0506C5.55612 19.0885 5.72853 19.1065 5.89851 19.1338C4.48778 19.1338 3.07706 19.1338 1.66675 19.1338C1.66675 17.7235 1.66675 16.3131 1.66675 14.9028Z" fill="white"/>
<path d="M13.5839 10.8094C13.5773 12.7912 11.96 14.3976 9.9847 14.3845C8.00618 14.3715 6.41 12.7655 6.41652 10.7939C6.42305 8.81257 8.04083 7.20538 10.0161 7.21883C11.9946 7.23188 13.5904 8.83784 13.5839 10.8094Z" fill="#555555"/>
<path d="M15.2449 5.95547C15.2457 6.17477 15.0602 6.36145 14.8434 6.36023C14.6286 6.359 14.439 6.1658 14.4423 5.9514C14.446 5.74067 14.6269 5.5605 14.8389 5.55765C15.061 5.5548 15.2441 5.73414 15.2449 5.95547Z" fill="#555555"/>
</svg>
