<svg width="20" height="21" viewBox="0 0 20 21" fill="none" xmlns="http://www.w3.org/2000/svg">
<path d="M16.4368 8.07972C16.4415 9.35336 16.2121 10.5831 15.6498 11.7339C15.039 12.9833 14.1339 13.9431 12.8083 14.4283C11.7985 14.7989 10.7665 14.89 9.75679 14.4067C9.49086 14.2799 9.2499 14.1017 8.98532 13.939C8.8996 14.2684 8.80578 14.6099 8.72276 14.9541C8.49733 15.893 8.226 16.8163 7.80752 17.6911C7.60099 18.1224 7.37893 18.5449 7.02255 18.8763C6.95573 18.9384 6.87946 18.9924 6.80049 19.0396C6.49744 19.2198 6.19641 19.1362 6.03239 18.8257C5.86568 18.5098 5.83328 18.1642 5.82383 17.8159C5.79278 16.624 6.00945 15.4658 6.29225 14.3143C6.6115 13.0157 6.91253 11.7117 7.21559 10.409C7.23584 10.3212 7.22571 10.2166 7.19804 10.1296C6.86866 9.08945 6.84301 8.0696 7.41065 7.09766C7.72316 6.5631 8.17268 6.20132 8.80376 6.1021C9.69402 5.96171 10.4797 6.60359 10.5451 7.50263C10.5931 8.15262 10.4095 8.75805 10.2387 9.36821C10.0801 9.93112 9.90798 10.49 9.75004 11.0529C9.6623 11.3654 9.6704 11.6772 9.83711 11.9668C10.1213 12.4582 10.5762 12.6181 11.1087 12.5702C11.7337 12.5148 12.1907 12.1571 12.5585 11.6759C13.029 11.0603 13.2895 10.3516 13.4461 9.60174C13.604 8.84377 13.6871 8.07905 13.575 7.30757C13.3948 6.06228 12.6996 5.21791 11.5103 4.83184C10.3103 4.44239 9.11086 4.49774 7.96884 5.06537C6.78497 5.65326 6.08504 6.63329 5.79683 7.90963C5.65104 8.55826 5.62405 9.21432 5.89133 9.84338C5.98515 10.0641 6.12284 10.272 6.2693 10.4643C6.44412 10.6931 6.51499 10.9274 6.43737 11.2075C6.3719 11.4423 6.31992 11.6806 6.25243 11.9148C6.12014 12.3778 5.78941 12.5297 5.35204 12.3346C4.48405 11.9479 3.94408 11.2628 3.64508 10.3874C3.15776 8.96256 3.24281 7.55258 3.89346 6.19795C4.84987 4.20818 6.47044 3.06886 8.60802 2.63014C8.94077 2.56197 9.28365 2.53902 9.6218 2.4938C9.65825 2.48907 9.69402 2.47625 9.7298 2.4668H10.6417C10.8239 2.4884 11.0061 2.50797 11.1884 2.53227C12.7414 2.73475 14.0745 3.37596 15.1072 4.56793C15.9752 5.57024 16.4328 6.74601 16.4368 8.07972Z" fill="#555555"/>
</svg>
