<svg width="20" height="21" viewBox="0 0 20 21" fill="none" xmlns="http://www.w3.org/2000/svg">
<path d="M16.986 17.7616C15.1305 15.0541 13.2734 12.3476 11.4171 9.64073C11.3928 9.60547 11.3706 9.56876 11.3404 9.52192C11.6655 9.14287 11.9891 8.76544 12.313 8.3882C13.9963 6.42766 15.6798 4.46694 17.3631 2.50622C17.3735 2.49392 17.3819 2.48 17.3913 2.4668H15.9617C14.2145 4.5013 12.4672 6.53599 10.6922 8.60286C10.6709 8.56434 10.6557 8.53125 10.6354 8.50177C9.27242 6.51356 7.90903 4.52572 6.546 2.53751C6.53099 2.51544 6.52032 2.49049 6.50748 2.4668H1.66663C1.70858 2.53552 1.74728 2.60641 1.79267 2.6726C3.83857 5.6569 5.88501 8.64084 7.93146 11.625C7.9528 11.6561 7.97323 11.6879 8.00307 11.7329C7.83687 11.9279 7.66977 12.1248 7.50141 12.3209C5.59892 14.5364 3.69625 16.7517 1.79394 18.9674C1.74873 19.0203 1.70894 19.0779 1.66663 19.1335H3.0962C3.74363 18.3759 4.38979 17.6173 5.03848 16.8608C6.19173 15.5158 7.3466 14.172 8.50076 12.8279C8.54289 12.7788 8.58629 12.7308 8.63657 12.6735C8.66912 12.7129 8.69806 12.7433 8.72157 12.7775C10.1524 14.8635 11.5829 16.9498 13.0132 19.0364C13.0344 19.0673 13.0514 19.1011 13.0703 19.1335H17.911C17.6029 18.6761 17.2978 18.2166 16.986 17.7616ZM15.7676 18.0974C15.1506 18.0979 14.5336 18.0947 13.9165 18.1005C13.8017 18.1014 13.731 18.0687 13.6639 17.9726C10.3497 13.2178 7.03284 8.4647 3.7165 3.71137C3.68594 3.66761 3.65809 3.62185 3.60926 3.54698C4.21455 3.54698 4.78819 3.56977 5.35894 3.5383C5.69657 3.51968 5.88266 3.63849 6.07382 3.91374C9.31221 8.5761 12.5634 13.2296 15.8118 17.8851C15.8539 17.9455 15.8946 18.0068 15.9499 18.0878C15.8705 18.0922 15.8192 18.0972 15.7676 18.0974Z" fill="#555555"/>
</svg>
